<svg width="19" height="19" viewBox="0 0 19 19" fill="none" xmlns="http://www.w3.org/2000/svg">
<path d="M13.3621 2.25H5.86206C3.79099 2.25 2.11206 3.92893 2.11206 6V13.5C2.11206 15.5711 3.79099 17.25 5.86206 17.25H13.3621C15.4331 17.25 17.1121 15.5711 17.1121 13.5V6C17.1121 3.92893 15.4331 2.25 13.3621 2.25Z" stroke="#F9F9F9" stroke-width="1.5" stroke-linecap="round" stroke-linejoin="round"/>
<path d="M12.6121 9.27748C12.7046 9.90167 12.598 10.5391 12.3074 11.0992C12.0168 11.6593 11.5569 12.1135 10.9933 12.3972C10.4297 12.6809 9.79092 12.7797 9.16792 12.6794C8.54493 12.5792 7.96941 12.285 7.52321 11.8389C7.07702 11.3927 6.78288 10.8171 6.68264 10.1941C6.58239 9.57115 6.68113 8.9324 6.96483 8.36876C7.24853 7.80512 7.70272 7.34529 8.26282 7.05466C8.82292 6.76404 9.4604 6.65742 10.0846 6.74998C10.7213 6.8444 11.3107 7.14108 11.7659 7.59621C12.221 8.05134 12.5177 8.64079 12.6121 9.27748Z" stroke="#F9F9F9" stroke-width="1.5" stroke-linecap="round" stroke-linejoin="round"/>
<path d="M13.7371 5.625H13.7449" stroke="#F9F9F9" stroke-width="1.5" stroke-linecap="round" stroke-linejoin="round"/>
</svg>
