<svg width="162" height="19" viewBox="0 0 162 19" fill="none" xmlns="http://www.w3.org/2000/svg">
<path fill-rule="evenodd" clip-rule="evenodd" d="M5.03979 9.51465V18.8034H8.52255V13.0518H10.8418L14.5753 18.8034H18.6345L14.5215 12.2354C15.0832 11.9041 15.5495 11.5043 15.9204 11.0363C16.3037 10.5681 16.601 10.0609 16.8125 9.51465H11.8473C11.5949 9.57864 11.3114 9.61064 10.9965 9.61064H8.52255V9.51465H5.03979ZM21.5059 9.51465V18.8034H33.8997V15.3623H24.9887V11.4541H32.5787V9.51465H21.5059ZM39.4486 9.51465L35.5094 18.8034H38.9441L40.3843 15.264H46.252L47.6149 18.8034H51.6501L47.7109 9.51465H44.0382L45.0973 12.2652H41.6044L42.7237 9.51465H39.4486ZM54.2271 9.51465V18.8034H66.0204V15.3623H57.7099V9.51465H54.2271ZM69.6143 9.51465V18.8034H73.097V9.51465H69.6143ZM80.59 9.51465V18.8034H84.0728V9.51465H80.59ZM91.7333 9.51465V18.8034H95.2161V9.51465H91.7333ZM99.7787 9.51465V18.8034H112.173V15.3623H103.261V11.4541H110.851V9.51465H99.7787ZM116.716 9.51465C116.762 9.55567 116.809 9.59586 116.857 9.63522C117.369 10.0285 117.913 10.3644 118.49 10.643C119.066 10.9216 119.627 11.1673 120.171 11.3804C120.636 11.5606 121.06 11.7736 121.444 12.0194C121.845 12.2652 122.157 12.5356 122.381 12.8306C122.621 13.1255 122.741 13.4533 122.741 13.8138C122.741 14.3381 122.597 14.7478 122.309 15.0427C122.037 15.3377 121.684 15.5507 121.252 15.6818C120.836 15.7965 120.419 15.8539 120.003 15.8539C119.587 15.8539 119.13 15.7883 118.634 15.6572C118.138 15.5261 117.641 15.3459 117.145 15.1165C116.664 14.8707 116.216 14.5921 115.8 14.2808L114.263 17.0583C114.887 17.5007 115.536 17.8694 116.208 18.1643C116.881 18.4429 117.561 18.6559 118.25 18.8034C118.954 18.9345 119.643 19.0001 120.315 19.0001C121.628 19.0001 122.733 18.7624 123.63 18.2872C124.527 17.7957 125.207 17.1566 125.672 16.37C126.136 15.5835 126.368 14.7314 126.368 13.8138C126.368 12.9453 126.248 12.2161 126.008 11.6262C125.768 11.0199 125.447 10.5201 125.047 10.1268C124.826 9.90019 124.587 9.69614 124.331 9.51465H116.716ZM129.419 9.51465V12.1915C129.419 13.5188 129.739 14.6986 130.379 15.731C131.02 16.7469 131.877 17.5499 132.95 18.1398C134.038 18.7133 135.239 19.0001 136.552 19.0001C137.881 19.0001 139.09 18.7133 140.179 18.1398C141.268 17.5499 142.133 16.7469 142.773 15.731C143.414 14.6986 143.734 13.5188 143.734 12.1915V9.51465H140.299V12.1178C140.299 12.6913 140.131 13.2402 139.795 13.7646C139.475 14.289 139.034 14.715 138.474 15.0427C137.913 15.3705 137.273 15.5343 136.552 15.5343C135.896 15.5343 135.287 15.3705 134.727 15.0427C134.182 14.715 133.742 14.289 133.406 13.7646C133.07 13.2402 132.901 12.6913 132.901 12.1178V9.51465H129.419ZM149.411 9.51465L145.471 18.8034H148.906L150.346 15.264H156.214L157.577 18.8034H161.612L157.673 9.51465H154L155.059 12.2652H151.566L152.686 9.51465H149.411Z" fill="#FAFAFA"/>
<path fill-rule="evenodd" clip-rule="evenodd" d="M53.2821 9.5146H49.7994V0.712808H53.2821V9.5146ZM68.6693 9.5146H65.1865V0.712808H68.6693V9.5146ZM79.645 9.5146H76.1623V4.15395H72.031V0.712808H83.9444V4.15395H79.645V9.5146ZM90.7883 9.5146H87.3056V0.712808H90.7883V9.5146ZM106.424 9.5146H95.351V0.712808H107.409V4.15395H98.8337V8.01295H106.424V9.5146ZM119.903 9.5146H112.288C111.855 9.12865 111.493 8.66907 111.204 8.13585C110.9 7.52955 110.748 6.79216 110.748 5.92368C110.748 4.87496 110.972 3.96551 111.42 3.19535C111.884 2.42519 112.533 1.81889 113.366 1.37646C114.198 0.917638 115.159 0.66365 116.248 0.614491C117.673 0.614491 118.826 0.786548 119.707 1.13066C120.603 1.47478 121.404 1.88444 122.109 2.35964L120.787 5.08798C120.115 4.71109 119.426 4.39975 118.722 4.15395C118.033 3.90816 117.385 3.78526 116.776 3.78526C116.024 3.78526 115.431 3.94093 114.999 4.25227C114.567 4.56361 114.35 5.03063 114.35 5.65331C114.35 6.07936 114.511 6.46444 114.831 6.80855C115.167 7.13628 115.591 7.43123 116.104 7.69342C116.632 7.9556 117.177 8.1932 117.737 8.40623C118.249 8.60286 118.754 8.84047 119.25 9.11903C119.479 9.23617 119.697 9.36802 119.903 9.5146ZM35.0209 9.5146L39.0559 0H39.2481L43.2831 9.5146H39.6104L38.9713 7.85481L38.2959 9.5146H35.0209ZM28.1509 9.5146H17.0782V0.712808H29.1357V4.15395H20.5609V8.01295H28.1509V9.5146ZM12.3847 9.5146H7.41967C7.59076 9.4712 7.74748 9.41308 7.88981 9.34025C8.24209 9.16 8.51431 8.93059 8.70646 8.65202C8.91462 8.37345 9.05874 8.08669 9.1388 7.79174C9.23488 7.48039 9.28291 7.19363 9.28291 6.93145C9.28291 6.73481 9.25089 6.48902 9.18684 6.19406C9.1388 5.88272 9.02671 5.57138 8.85057 5.26004C8.67443 4.94869 8.40222 4.68651 8.03393 4.47349C7.68165 4.26047 7.20127 4.15395 6.59279 4.15395H4.09481V9.5146H0.612061V0.712808H5.96829C7.07317 0.712808 8.05794 0.860286 8.92263 1.15524C9.78731 1.43381 10.5079 1.84347 11.0843 2.38422C11.6768 2.90859 12.1252 3.54766 12.4294 4.30143C12.7336 5.03882 12.8858 5.87453 12.8858 6.80855C12.8858 7.54594 12.7737 8.28333 12.5495 9.02072C12.5021 9.18875 12.4471 9.35337 12.3847 9.5146ZM153.245 9.5146L149.21 0H149.018L144.983 9.5146H148.258L148.933 7.85482L149.572 9.5146H153.245ZM139.306 9.5146H135.872V0.712808H139.306V9.5146ZM128.474 9.5146H124.991V0.712808H128.474V9.5146Z" fill="#FAFAFA"/>
</svg>
