<svg width="19" height="19" viewBox="0 0 19 19" fill="none" xmlns="http://www.w3.org/2000/svg">
<path d="M9.61206 15C7.88706 15 4.81206 14.85 3.53706 14.55C3.01206 14.4 2.63706 14.025 2.48706 13.5C2.26206 12.675 2.11206 10.95 2.11206 9.75C2.11206 8.55 2.26206 6.825 2.48706 6C2.63706 5.475 3.01206 5.1 3.53706 4.95C4.81206 4.65 7.88706 4.5 9.61206 4.5C11.3371 4.5 14.4121 4.65 15.6871 4.95C16.2121 5.1 16.5871 5.475 16.7371 6C16.9621 6.825 17.1121 8.55 17.1121 9.75C17.1121 10.95 16.9621 12.675 16.7371 13.5C16.5871 14.025 16.2121 14.4 15.6871 14.55C14.4121 14.85 11.3371 15 9.61206 15V15Z" stroke="#F9F9F9" stroke-width="1.5" stroke-linecap="round" stroke-linejoin="round"/>
<path d="M8.11206 12L11.8621 9.75L8.11206 7.5V12Z" stroke="#F9F9F9" stroke-width="1.5" stroke-linecap="round" stroke-linejoin="round"/>
</svg>
