<svg width="62" height="14" viewBox="0 0 62 14" fill="none" xmlns="http://www.w3.org/2000/svg">
<path d="M11.2066 2.86279L7.42025 11.409H4.94985L3.08716 4.58785C2.9742 4.16888 2.87593 4.01497 2.53253 3.83755C1.97 3.54897 1.04261 3.27856 0.227051 3.11076L0.2824 2.86279H4.25854C4.76459 2.86279 5.21982 3.1813 5.33616 3.73387L6.32116 8.67927L8.7509 2.86279H11.2066Z" fill="#F9F9F9"/>
<path d="M14.546 2.86279L12.6133 11.409H10.2773L12.2089 2.86279H14.546Z" fill="#F9F9F9"/>
<path d="M20.8836 8.61814C20.8938 6.36295 17.5886 6.2379 17.6101 5.23001C17.618 4.92326 17.9264 4.59727 18.6018 4.5139C18.9362 4.47329 19.8602 4.44016 20.9062 4.89654L21.3151 3.08276C20.7526 2.89145 20.0296 2.70654 19.1294 2.70654C16.8194 2.70654 15.1939 3.86727 15.1815 5.53141C15.1668 6.76161 16.3415 7.44779 17.226 7.85821C18.1365 8.27719 18.4426 8.54546 18.4381 8.91954C18.4313 9.49243 17.7106 9.7468 17.0408 9.75642C15.866 9.77459 15.1837 9.45609 14.6404 9.21667L14.2168 11.0903C14.7635 11.3276 15.7711 11.5339 16.8148 11.5435C19.2706 11.5424 20.8768 10.3956 20.8836 8.61814Z" fill="#F9F9F9"/>
<path d="M27.2568 2.86279H25.2631C24.8135 2.86279 24.4363 3.10969 24.268 3.48912L20.7617 11.409H23.2163L23.7032 10.1318H26.7011L26.9835 11.409H29.1444L27.2568 2.86279ZM24.3753 8.38107L25.6065 5.17143L26.3125 8.38107H24.3753Z" fill="#F9F9F9"/>
<path d="M53.7997 1.9397H48.0933V12.3088H53.7997V1.9397Z" fill="#FF5F00"/>
<path d="M48.4562 7.12491C48.4562 5.01769 49.4341 3.14916 50.9376 1.93991C49.8326 1.06114 48.438 0.529541 46.9163 0.529541C43.3109 0.529541 40.3945 3.4788 40.3945 7.12491C40.3945 10.771 43.3109 13.7203 46.9163 13.7203C48.438 13.7203 49.8326 13.1887 50.9376 12.3099C49.4341 11.119 48.4562 9.23128 48.4562 7.12491Z" fill="#EB001B"/>
<path d="M61.5 7.12491C61.5 10.771 58.5836 13.7203 54.9782 13.7203C53.4565 13.7203 52.0619 13.1887 50.9569 12.3099C52.4786 11.1007 53.4383 9.23212 53.4383 7.12491C53.4383 5.01769 52.4596 3.14916 50.9561 1.93991C52.061 1.06114 53.4565 0.529541 54.9782 0.529541C58.5828 0.529541 61.5 3.49716 61.5 7.12491Z" fill="#F79E1B"/>
</svg>
